<svg id="Icons" xmlns="http://www.w3.org/2000/svg" viewBox="0 0 24 24"><defs><style>.cls-1{fill:#58595b;}</style></defs><title>Cloudy-Sun</title><path class="cls-1" d="M22,10a5,5,0,0,0-9.11-2.82A6.93,6.93,0,0,0,9,6,7,7,0,0,0,9,20h7.5A5.51,5.51,0,0,0,22,14.5a5.29,5.29,0,0,0-.52-2.31A4.9,4.9,0,0,0,22,10ZM17,7a3,3,0,0,1,3,3,2.09,2.09,0,0,1,0,.25l-.08-.05a6.32,6.32,0,0,0-.68-.47h0a5.23,5.23,0,0,0-.76-.35l-.24-.08a6.09,6.09,0,0,0-.61-.17l-.24,0A4.91,4.91,0,0,0,16.5,9H14.74c-.11-.16-.23-.32-.35-.47A3,3,0,0,1,17,7Zm-.5,11H9A5,5,0,0,1,9,8a4.93,4.93,0,0,1,3.51,1.45,4.45,4.45,0,0,1,.81,1.05,1,1,0,0,0,.87.5H16.5a3.45,3.45,0,0,1,3,1.71A3.33,3.33,0,0,1,20,14.5,3.5,3.5,0,0,1,16.5,18Z"/></svg>