<svg id="Icons" xmlns="http://www.w3.org/2000/svg" viewBox="0 0 24 24"><defs><style>.cls-1{fill:#58595b;}</style></defs><title>Cloudy 2</title><path class="cls-1" d="M16.5,7H14.74A7,7,0,0,0,2.43,13.4,4.62,4.62,0,0,0,2,15.33,4.67,4.67,0,0,0,6.67,20h4.58a3.76,3.76,0,0,0,3.3-2H16.5a5.5,5.5,0,0,0,0-11ZM11.25,18H6.67A2.67,2.67,0,1,1,9,14a1,1,0,0,0,.87.5h1.41a1.75,1.75,0,0,1,0,3.5Zm5.25-2H15a3.74,3.74,0,0,0-3.72-3.5h-.88a4.67,4.67,0,0,0-6.32-1A3.56,3.56,0,0,1,4,11a5,5,0,0,1,9.32-2.5,1,1,0,0,0,.87.5H16.5a3.5,3.5,0,0,1,0,7Z"/></svg>