<svg id="Icons" xmlns="http://www.w3.org/2000/svg" viewBox="0 0 24 24"><defs><style>.cls-1{fill:#58595b;}</style></defs><title>Heavy Rain</title><path class="cls-1" d="M15,21h-.16A1,1,0,0,1,14,20V19H13a1,1,0,0,1-.79-.38,1,1,0,0,1-.18-.86l1-4A1,1,0,0,1,14,13h1a1,1,0,0,1,.81.42,1,1,0,0,1,.14.9L15.39,16H16a1,1,0,0,1,.81.42,1,1,0,0,1,.14.9l-1,3A1,1,0,0,1,15,21Z"/><path class="cls-1" d="M9,18a1,1,0,0,1-1-1V14a1,1,0,0,1,2,0v3A1,1,0,0,1,9,18Z"/><circle class="cls-1" cx="9" cy="20" r="1"/><path class="cls-1" d="M18.09,16.71a1,1,0,0,1-.94-.64,1,1,0,0,1,.58-1.29l.34-.15A3.5,3.5,0,0,0,16.5,8H14.19a1,1,0,0,1-.87-.5A5,5,0,1,0,6.5,14.33a1,1,0,1,1-1,1.73A7,7,0,1,1,14.74,6H16.5A5.5,5.5,0,0,1,19,16.42l-.53.23A1.12,1.12,0,0,1,18.09,16.71Z"/></svg>