<svg id="Icons" xmlns="http://www.w3.org/2000/svg" viewBox="0 0 24 24"><defs><style>.cls-1{fill:#58595b;}</style></defs><title>Humidity</title><path class="cls-1" d="M12,21.53a4.53,4.53,0,0,1-3.21-7.74l2.5-2.5a1,1,0,0,1,1.42,0l2.5,2.5A4.53,4.53,0,0,1,12,21.53Zm0-8.12-1.79,1.8a2.53,2.53,0,1,0,3.58,0Z"/><path class="cls-1" d="M17,11.83a3.83,3.83,0,0,1-2.71-6.54l2-2a1,1,0,0,1,1.42,0l2,2A3.83,3.83,0,0,1,17,11.83Zm0-6.42-1.29,1.3a1.82,1.82,0,1,0,2.58,0Z"/><path class="cls-1" d="M6,13.12A3.13,3.13,0,0,1,3.79,7.79l1.5-1.5a1,1,0,0,1,1.42,0l1.5,1.5A3.12,3.12,0,0,1,6,13.12ZM6,8.41l-.79.8a1.12,1.12,0,1,0,1.58,0h0Z"/></svg>