<svg id="Icons" xmlns="http://www.w3.org/2000/svg" viewBox="0 0 24 24"><defs><style>.cls-1{fill:#58595b;}</style></defs><title>Kalvin</title><path class="cls-1" d="M6,12a4,4,0,1,1,4-4A4,4,0,0,1,6,12ZM6,6A2,2,0,1,0,8,8,2,2,0,0,0,6,6Z"/><path class="cls-1" d="M13,19a1,1,0,0,1-1-1V6a1,1,0,0,1,2,0V18A1,1,0,0,1,13,19Z"/><path class="cls-1" d="M13,13a1,1,0,0,1-.71-.29,1,1,0,0,1,0-1.42l6-6a1,1,0,1,1,1.42,1.42l-6,6A1,1,0,0,1,13,13Z"/><path class="cls-1" d="M19,19a1,1,0,0,1-.71-.29l-6-6a1,1,0,0,1,1.42-1.42l6,6a1,1,0,0,1,0,1.42A1,1,0,0,1,19,19Z"/></svg>