<svg id="Icons" xmlns="http://www.w3.org/2000/svg" viewBox="0 0 24 24"><defs><style>.cls-1{fill:#58595b;}</style></defs><title>Rain 4</title><path class="cls-1" d="M18.09,16.71a1,1,0,0,1-.94-.65,1,1,0,0,1,.58-1.28l.34-.15A3.5,3.5,0,0,0,16.5,8H14.19a1,1,0,0,1-.87-.5A5,5,0,1,0,6.5,14.33a1,1,0,1,1-1,1.73A7,7,0,1,1,14.74,6H16.5A5.5,5.5,0,0,1,19,16.42l-.53.23A1.12,1.12,0,0,1,18.09,16.71Z"/><path class="cls-1" d="M9,16a1,1,0,0,1-1-1V13a1,1,0,0,1,2,0v2A1,1,0,0,1,9,16Z"/><path class="cls-1" d="M9,21a1,1,0,0,1-1-1V18a1,1,0,0,1,2,0v2A1,1,0,0,1,9,21Z"/><path class="cls-1" d="M15,16a1,1,0,0,1-1-1V13a1,1,0,0,1,2,0v2A1,1,0,0,1,15,16Z"/><path class="cls-1" d="M15,21a1,1,0,0,1-1-1V18a1,1,0,0,1,2,0v2A1,1,0,0,1,15,21Z"/><path class="cls-1" d="M12,17a1,1,0,0,1-1-1V14a1,1,0,0,1,2,0v2A1,1,0,0,1,12,17Z"/><path class="cls-1" d="M12,22a1,1,0,0,1-1-1V19a1,1,0,0,1,2,0v2A1,1,0,0,1,12,22Z"/></svg>