<svg id="Icons" xmlns="http://www.w3.org/2000/svg" viewBox="0 0 24 24"><defs><style>.cls-1{fill:#58595b;}</style></defs><title>Snow</title><path class="cls-1" d="M21,11H19.45l1.27-1.3a1,1,0,0,0-1.44-1.4L16.66,11H15.41L13,8.59V7.34l2.7-2.62a1,1,0,1,0-1.4-1.44L13,4.55V3a1,1,0,0,0-2,0V4.55L9.7,3.28A1,1,0,0,0,8.3,4.72L11,7.34V8.59L8.59,11H7.34L4.72,8.3A1,1,0,1,0,3.28,9.7L4.55,11H3a1,1,0,0,0,0,2H4.55L3.28,14.3a1,1,0,0,0,1.44,1.4L7.34,13H8.59L11,15.41v1.25L8.3,19.28a1,1,0,0,0,1.4,1.44L11,19.45V21a1,1,0,0,0,2,0V19.45l1.3,1.27a1,1,0,0,0,1.4-1.44L13,16.66V15.41L15.41,13h1.25l2.62,2.7a1,1,0,0,0,1.44-1.4L19.45,13H21a1,1,0,0,0,0-2Zm-9,2.59L10.41,12,12,10.41,13.59,12Z"/></svg>