<svg id="Icons" xmlns="http://www.w3.org/2000/svg" viewBox="0 0 24 24"><defs><style>.cls-1{fill:#58595b;}</style></defs><title>Snowy</title><path class="cls-1" d="M18,17.76a1,1,0,0,1-.32-2A3.5,3.5,0,0,0,16.5,9H14.19a1,1,0,0,1-.87-.5,5,5,0,1,0-6.84,6.82,1,1,0,1,1-1,1.72A7,7,0,1,1,14.74,7H16.5a5.5,5.5,0,0,1,1.78,10.71A1.13,1.13,0,0,1,18,17.76Z"/><path class="cls-1" d="M12,21a1,1,0,0,1-1-1V14a1,1,0,0,1,2,0v6A1,1,0,0,1,12,21Z"/><path class="cls-1" d="M14.6,19.5a1,1,0,0,1-.5-.13l-5.2-3a1,1,0,0,1,1-1.74l5.2,3a1,1,0,0,1-.5,1.87Z"/><path class="cls-1" d="M9.4,19.5a1,1,0,0,1-.5-1.87l5.2-3a1,1,0,0,1,1,1.74l-5.2,3A1,1,0,0,1,9.4,19.5Z"/></svg>