<svg id="Icons" xmlns="http://www.w3.org/2000/svg" viewBox="0 0 24 24"><defs><style>.cls-1{fill:#58595b;}</style></defs><title>Surise</title><path class="cls-1" d="M16,13a1,1,0,0,1-1-1,3,3,0,0,0-6,0,1,1,0,0,1-2,0,5,5,0,0,1,10,0A1,1,0,0,1,16,13Z"/><path class="cls-1" d="M12,6a1,1,0,0,1-1-1V3a1,1,0,0,1,2,0V5A1,1,0,0,1,12,6Z"/><path class="cls-1" d="M7.05,8.05a1,1,0,0,1-.71-.29L4.93,6.34A1,1,0,0,1,6.34,4.93L7.76,6.34a1,1,0,0,1,0,1.42A1,1,0,0,1,7.05,8.05Z"/><path class="cls-1" d="M5,13H3a1,1,0,0,1,0-2H5a1,1,0,0,1,0,2Z"/><path class="cls-1" d="M21,13H19a1,1,0,0,1,0-2h2a1,1,0,0,1,0,2Z"/><path class="cls-1" d="M17,8.05a1,1,0,0,1-.71-.29,1,1,0,0,1,0-1.42l1.42-1.41a1,1,0,1,1,1.41,1.41L17.66,7.76A1,1,0,0,1,17,8.05Z"/><path class="cls-1" d="M21,17H3a1,1,0,0,1,0-2H21a1,1,0,0,1,0,2Z"/><path class="cls-1" d="M17,21H7a1,1,0,0,1,0-2H17a1,1,0,0,1,0,2Z"/></svg>