<svg id="Icons" xmlns="http://www.w3.org/2000/svg" viewBox="0 0 24 24"><defs><style>.cls-1{fill:#58595b;}</style></defs><title>Temperature up</title><path class="cls-1" d="M8,22a5,5,0,0,1-3-9V5a3,3,0,0,1,6,0v8a5,5,0,0,1-3,9ZM8,4A1,1,0,0,0,7,5v8.54a1,1,0,0,1-.5.87A3,3,0,0,0,5,17a3,3,0,0,0,6,0,3,3,0,0,0-1.5-2.59,1,1,0,0,1-.5-.87V5A1,1,0,0,0,8,4Z"/><circle class="cls-1" cx="8" cy="17" r="1"/><path class="cls-1" d="M20.71,9.29l-3-3a1,1,0,0,0-1.42,0l-3,3a1,1,0,0,0,1.42,1.42L16,9.41V12a1,1,0,0,0,2,0V9.41l1.29,1.3a1,1,0,0,0,1.42,0A1,1,0,0,0,20.71,9.29Z"/></svg>