<svg id="Icons" xmlns="http://www.w3.org/2000/svg" viewBox="0 0 24 24"><defs><style>.cls-1{fill:#58595b;}</style></defs><title>Thunder cloudy</title><path class="cls-1" d="M13,21h-.16A1,1,0,0,1,12,20V19H11a1,1,0,0,1-.79-.38,1,1,0,0,1-.18-.86l1-4A1,1,0,0,1,12,13h1a1,1,0,0,1,.81.42,1,1,0,0,1,.14.9L13.39,16H14a1,1,0,0,1,.81.42,1,1,0,0,1,.14.9l-1,3A1,1,0,0,1,13,21Z"/><path class="cls-1" d="M18,17.76a1,1,0,0,1-.32-2A3.5,3.5,0,0,0,16.5,9H14.19a1,1,0,0,1-.87-.5,5,5,0,1,0-6,7.2,1,1,0,1,1-.68,1.88A7,7,0,1,1,14.74,7H16.5a5.5,5.5,0,0,1,1.78,10.71A1.13,1.13,0,0,1,18,17.76Z"/></svg>