<svg id="Icons" xmlns="http://www.w3.org/2000/svg" viewBox="0 0 24 24"><defs><style>.cls-1{fill:#58595b;}</style></defs><title>Thunder cloud</title><path class="cls-1" d="M13,21h-.16A1,1,0,0,1,12,20V19H11a1,1,0,0,1-.79-.38,1,1,0,0,1-.18-.86l1-4A1,1,0,0,1,12,13h1a1,1,0,0,1,.81.42,1,1,0,0,1,.14.9L13.39,16H14a1,1,0,0,1,.81.42,1,1,0,0,1,.14.9l-1,3A1,1,0,0,1,13,21Z"/><path class="cls-1" d="M22,8a5,5,0,0,0-9.12-2.81A7,7,0,1,0,6.62,17.58,1,1,0,1,0,7.3,15.7a5,5,0,1,1,5.22-8.25l.11.13a4.81,4.81,0,0,1,.69.92,1,1,0,0,0,.87.5H16.5a3.39,3.39,0,0,1,.64.07l.11,0a3.31,3.31,0,0,1,1.19.5h0A3.05,3.05,0,0,1,19,10h0a3.73,3.73,0,0,1,.36.43c0,.06.07.11.1.16a3.48,3.48,0,0,1-1.8,5.19,1,1,0,0,0,.32,2,1.13,1.13,0,0,0,.32-.05A5.5,5.5,0,0,0,22,12.5a5.4,5.4,0,0,0-.52-2.31A4.9,4.9,0,0,0,22,8ZM14.74,7c-.11-.16-.23-.32-.35-.47A3,3,0,0,1,20,8a1.93,1.93,0,0,1,0,.24l-.18-.13-.4-.27-.29-.17a4.66,4.66,0,0,0-.6-.28l-.27-.1a6.38,6.38,0,0,0-.72-.19l-.18,0A6,6,0,0,0,16.5,7Z"/></svg>