<svg id="Icons" xmlns="http://www.w3.org/2000/svg" viewBox="0 0 24 24"><defs><style>.cls-1{fill:#58595b;}</style></defs><title>Tsunami</title><path class="cls-1" d="M21,20H18.4c-3.51-3.14-2-9.54-1.58-11.25A9.12,9.12,0,0,1,20,8a1,1,0,0,0,.24-2c-4.8-1.2-8.66-.63-11.47,1.7C4.57,11.2,4,17.5,4,20H3a1,1,0,0,0,0,2H21a1,1,0,0,0,0-2Zm-5.25,0H11.9c-.44-4,.24-7.09,2-9.17a5.9,5.9,0,0,1,.49-.51C14,12.94,13.73,17,15.75,20ZM10,9.27a8.3,8.3,0,0,1,4.9-1.82A9.6,9.6,0,0,0,12.43,9.5c-2.14,2.48-3,6-2.54,10.5H6C6,17.78,6.51,12.18,10,9.27Z"/></svg>